 <svg version="1.0" xmlns="http://www.w3.org/2000/svg" width="700.000000pt" height="563.000000pt" viewBox="0 0 700.000000 563.000000" preserveAspectRatio="xMidYMid meet">
<metadata>
Created by potrace 1.12, written by Peter Selinger 2001-2015
</metadata>
<g transform="translate(0.000000,563.000000) scale(0.100000,-0.100000)" fill="#000000" stroke="none">
<path d="M0 2830 l0 -2800 3495 0 3495 0 0 2800 0 2800 -3495 0 -3495 0 0
-2800z m3790 2206 c289 -67 491 -178 696 -381 217 -215 348 -466 400 -770 20
-114 14 -413 -11 -522 -45 -201 -133 -393 -254 -554 -206 -274 -493 -457 -836
-535 -42 -9 -141 -18 -247 -21 -207 -6 -323 8 -484 62 -224 74 -410 192 -577
364 -195 202 -305 410 -369 692 -32 146 -33 427 -1 571 72 320 232 590 469
789 216 182 459 289 744 329 114 16 352 4 470 -24z m1415 -3078 c9 -58 24
-197 45 -441 12 -131 32 -302 44 -380 13 -78 20 -146 16 -150 -11 -12 -38 -2
-93 33 -42 26 -49 36 -64 90 -9 33 -19 60 -22 60 -3 0 -23 -26 -43 -58 -47
-72 -82 -106 -102 -99 -18 7 -64 69 -119 161 l-41 68 12 252 c11 224 23 356
37 424 6 24 41 30 76 12 18 -10 19 -24 19 -311 0 -299 0 -300 25 -349 36 -71
36 -71 90 -12 l30 33 -4 298 c-3 318 -3 320 47 374 33 35 40 34 47 -5z m349
-70 c49 -275 105 -528 118 -528 4 0 11 12 14 28 45 190 108 429 126 476 l21
58 57 -5 c101 -9 100 -7 100 -162 0 -92 -10 -210 -30 -368 -44 -344 -44 -345
-82 -384 -17 -18 -36 -33 -40 -33 -10 0 -9 212 1 410 7 139 7 159 -4 149 -2
-3 -33 -100 -68 -217 -35 -117 -67 -216 -71 -220 -5 -4 -21 9 -37 28 -20 24
-47 89 -88 213 -32 98 -62 181 -66 185 -4 4 -5 -36 -1 -88 15 -221 19 -440 8
-440 -14 0 -50 37 -67 70 -23 45 -85 588 -85 750 0 61 4 80 18 92 21 19 132
77 148 78 7 0 19 -38 28 -92z m-4043 1 c4 -35 10 -173 14 -306 4 -134 10 -243
14 -243 3 0 19 84 34 187 16 103 36 206 46 228 20 43 86 113 97 102 4 -4 18
-114 32 -244 14 -131 27 -240 29 -242 10 -13 14 27 28 230 9 123 20 238 25
255 18 53 101 117 123 95 13 -13 -7 -206 -58 -566 -40 -278 -63 -405 -76 -426
-8 -11 -15 -8 -38 19 -20 23 -33 56 -45 110 -19 93 -56 342 -56 383 0 39 -18
37 -25 -3 -55 -333 -92 -497 -112 -505 -19 -7 -60 33 -72 71 -12 38 -57 394
-72 571 -15 187 -7 171 -86 178 -39 3 -71 1 -74 -5 -3 -5 -9 -139 -13 -298 -7
-300 -19 -497 -31 -508 -12 -12 -75 66 -75 93 0 51 -40 681 -45 712 -6 34 -9
35 -109 49 -59 8 -86 32 -86 78 l0 33 83 6 c45 4 166 7 268 7 161 0 188 -2
193 -16 5 -14 9 -13 34 5 15 11 32 19 37 17 6 -1 13 -31 16 -67z m1638 36 c78
-39 210 -143 217 -171 13 -52 -39 -361 -87 -522 -20 -64 -29 -80 -79 -125 -60
-56 -164 -117 -199 -117 -13 0 -25 9 -31 24 -39 104 -81 892 -48 912 20 13 71
22 126 23 38 1 66 -6 101 -24z m1441 -29 c41 -27 96 -66 123 -88 44 -37 47
-43 47 -86 0 -91 -45 -334 -90 -486 -21 -68 -29 -82 -79 -129 -65 -59 -171
-120 -203 -115 -14 2 -24 13 -30 33 -39 143 -76 870 -46 900 14 15 75 24 138
22 59 -2 72 -7 140 -51z m-1024 -404 c5 -234 11 -355 18 -361 6 -5 57 -11 114
-14 56 -3 109 -10 116 -16 18 -15 40 -101 28 -113 -12 -12 -263 -48 -334 -48
-31 0 -60 5 -63 11 -4 5 -2 200 5 432 11 391 13 425 32 462 11 22 30 51 41 63
l22 24 7 -44 c3 -23 10 -202 14 -396z m-1162 409 c18 -15 18 -44 0 -135 l-6
-28 -127 3 -126 4 -3 -105 c-1 -58 2 -111 7 -118 5 -8 42 -18 87 -23 129 -15
127 -14 119 -57 -13 -73 -26 -82 -114 -82 -55 0 -82 -4 -90 -14 -8 -9 -11 -48
-9 -112 l3 -99 123 -3 c139 -3 139 -3 100 -82 l-23 -45 -101 2 c-149 2 -177
20 -193 123 -13 81 -48 474 -57 639 -6 115 -6 125 12 138 27 21 373 15 398 -6z
m421 11 l40 -8 0 -64 c0 -107 5 -104 -140 -96 l-125 8 0 -116 c0 -135 -4 -130
109 -140 40 -4 79 -10 87 -13 19 -7 18 -57 -1 -93 -15 -29 -17 -30 -93 -30
-42 0 -83 -4 -90 -8 -9 -6 -12 -36 -10 -113 l3 -104 123 -3 c88 -2 122 -6 122
-15 0 -7 -12 -36 -25 -66 l-25 -54 -100 6 c-105 6 -150 22 -174 60 -22 33 -76
576 -76 757 0 65 3 81 18 89 19 12 296 14 357 3z m1390 0 l40 -8 0 -64 c0
-107 5 -104 -140 -96 l-125 8 0 -120 0 -120 28 -6 c15 -2 54 -8 87 -11 85 -9
95 -13 95 -40 0 -30 -18 -77 -33 -87 -7 -4 -32 -8 -57 -8 -25 0 -62 -3 -83 -6
l-38 -7 3 -106 3 -106 123 -3 c88 -2 122 -6 122 -15 0 -7 -12 -36 -25 -66
l-25 -54 -106 6 c-163 9 -176 23 -198 217 -23 197 -46 499 -46 595 0 69 3 86
18 94 19 12 296 14 357 3z"></path>
<path d="M2836 4430 c-63 -20 -86 -77 -50 -129 14 -20 15 -28 4 -62 -16 -46
-3 -84 32 -98 24 -10 162 -26 326 -37 54 -4 95 -12 97 -18 2 -6 9 -96 15 -200
11 -195 32 -364 75 -591 13 -71 33 -186 44 -255 34 -213 66 -280 134 -280 23
0 41 8 57 25 17 18 35 25 73 27 41 2 54 8 70 31 20 26 20 32 9 136 -14 129
-82 535 -112 676 -35 159 -52 303 -45 375 10 104 -7 95 177 93 90 -1 188 -4
218 -8 155 -19 325 81 295 175 -3 11 -22 32 -41 47 -19 14 -42 39 -50 54 -19
38 -49 44 -142 30 -59 -9 -182 -10 -522 -1 -245 6 -488 13 -540 15 -52 3 -108
0 -124 -5z m549 -40 c298 -10 499 -9 704 3 41 2 44 0 55 -32 8 -25 20 -36 46
-45 41 -13 51 -49 26 -89 -16 -23 -19 -23 -126 -19 -78 3 -110 1 -110 -7 0 -7
28 -11 84 -11 79 0 111 -10 86 -25 -21 -13 -213 -28 -229 -18 -9 6 -96 9 -201
9 l-185 -2 0 -64 c0 -36 -3 -70 -7 -76 -4 -7 -3 -36 2 -65 5 -30 12 -84 16
-122 3 -37 11 -73 18 -80 7 -6 29 -124 50 -262 20 -137 43 -286 51 -330 24
-136 38 -296 27 -307 -5 -5 -25 -11 -43 -11 -27 -2 -34 2 -39 22 -8 35 -26 37
-33 4 -12 -62 -68 -103 -96 -69 -23 27 -52 134 -72 261 -11 72 -33 200 -49
285 -48 257 -86 625 -78 751 l3 44 -150 7 c-82 4 -188 11 -235 15 -83 8 -85 9
-88 35 -5 38 15 70 38 63 36 -11 30 15 -9 39 -47 30 -60 60 -36 86 23 25 44
29 145 25 47 -2 243 -9 435 -15z"></path>
<path d="M3700 4330 c0 -5 18 -10 40 -10 22 0 40 5 40 10 0 6 -18 10 -40 10
-22 0 -40 -4 -40 -10z"></path>
<path d="M3470 4075 c0 -25 5 -45 10 -45 6 0 10 20 10 45 0 25 -4 45 -10 45
-5 0 -10 -20 -10 -45z"></path>
<path d="M3480 3965 c0 -25 5 -45 10 -45 6 0 10 20 10 45 0 25 -4 45 -10 45
-5 0 -10 -20 -10 -45z"></path>
<path d="M3550 3660 c0 -11 5 -20 10 -20 6 0 10 9 10 20 0 11 -4 20 -10 20 -5
0 -10 -9 -10 -20z"></path>
<path d="M3565 3543 c7 -59 11 -70 20 -61 9 9 -7 118 -18 118 -6 0 -7 -22 -2
-57z"></path>
<path d="M3580 3435 c0 -8 5 -15 10 -15 6 0 10 7 10 15 0 8 -4 15 -10 15 -5 0
-10 -7 -10 -15z"></path>
<path d="M3068 1783 c-10 -12 -14 -82 -16 -315 -3 -268 -1 -299 13 -304 19 -8
60 20 86 57 32 43 90 384 76 441 -10 37 -62 95 -108 118 -34 18 -38 18 -51 3z"></path>
<path d="M4453 1778 c-4 -7 -9 -147 -11 -311 -3 -269 -2 -298 13 -303 19 -8
59 19 87 57 33 44 89 382 74 444 -10 40 -99 125 -130 125 -14 0 -28 -6 -33
-12z"></path>
</g>
</svg>